<svg width="389" height="153" viewBox="0 0 389 153" fill="none" xmlns="http://www.w3.org/2000/svg">
<path d="M163.104 49.192C163.104 47.272 162.432 46.312 161.088 46.312C160.576 46.312 159.968 46.44 159.264 46.696C158.56 46.952 157.888 47.176 157.248 47.368C154.88 48.648 153.024 50.056 151.68 51.592C150.4 53.064 149.088 54.728 147.744 56.584C146.4 58.44 145.248 60.424 144.288 62.536C143.328 64.648 142.592 66.632 142.08 68.488C140.224 75.336 140.928 79.944 144.192 82.312C145.536 83.272 146.944 83.752 148.416 83.752C149.952 83.688 151.168 83.368 152.064 82.792C153.024 82.216 153.952 81.672 154.848 81.16C155.744 80.648 156.768 80.296 157.92 80.104C159.136 79.848 160.608 80.008 162.336 80.584C164.128 81.096 165.088 81.8 165.216 82.696C165.344 83.592 165.344 84.52 165.216 85.48C165.088 86.44 165.056 87.304 165.12 88.072C165.248 88.84 165.952 89.32 167.232 89.512C168.448 91.048 167.68 92.904 164.928 95.08C164.224 95.656 163.552 96.2 162.912 96.712C157.408 100.232 151.552 102.184 145.344 102.568C141.44 102.824 137.28 102.12 132.864 100.456C126.272 97.96 122.56 92.36 121.728 83.656C120.64 75.592 121.664 67.24 124.8 58.6C127.424 51.304 131.392 44.552 136.704 38.344C141.504 32.648 146.24 28.936 150.912 27.208C156.48 24.328 162.496 23.208 168.96 23.848C175.808 24.744 180.288 27.656 182.4 32.584C184.512 37.512 184.16 43.432 181.344 50.344C180.384 52.776 178.56 54.696 175.872 56.104C173.568 57.384 171.072 58.024 168.384 58.024C165.696 58.024 163.968 57.192 163.2 55.528C162.432 53.8 162.4 51.688 163.104 49.192ZM215.639 32.104C213.399 39.08 211.319 45.384 209.399 51.016C207.543 56.648 205.815 61.832 204.215 66.568C202.679 71.304 201.239 75.688 199.895 79.72C198.551 83.688 197.303 87.496 196.151 91.144C195.511 95.368 193.431 98.344 189.911 100.072C187.863 101.032 185.431 101.512 182.615 101.512C179.799 101.512 177.687 101.192 176.279 100.552C174.871 99.976 173.975 99.112 173.591 97.96C173.143 96.808 173.143 95.432 173.591 93.832C173.975 92.168 174.679 89.928 175.703 87.112C176.727 84.232 178.007 80.36 179.543 75.496C181.143 70.632 182.807 65.704 184.535 60.712C188.823 48.232 192.215 39.592 194.711 34.792C195.671 33 196.631 31.816 197.591 31.24C198.551 30.6 199.479 30.152 200.375 29.896C201.271 29.576 202.103 29.224 202.871 28.84C203.639 28.456 204.311 27.496 204.887 25.96C205.527 24.424 206.647 23.368 208.247 22.792C209.911 22.216 211.447 22.184 212.855 22.696C214.327 23.144 215.415 24.168 216.119 25.768C216.887 27.304 216.727 29.416 215.639 32.104ZM216.809 59.752C218.089 55.464 219.113 52.168 219.881 49.864C220.713 47.496 221.513 45.384 222.281 43.528C223.049 41.672 223.913 39.88 224.873 38.152C225.897 36.424 226.985 34.856 228.137 33.448C229.353 31.976 230.633 30.824 231.977 29.992C233.321 29.16 234.729 28.744 236.201 28.744C237.673 28.744 239.209 29.32 240.809 30.472C243.369 36.872 244.937 41.16 245.513 43.336C246.281 46.536 246.985 51.048 247.625 56.872C248.201 55.4 248.841 53.864 249.545 52.264C250.313 50.6 251.049 48.936 251.753 47.272C253.737 43.048 254.985 39.848 255.497 37.672C256.905 33.192 259.817 29.832 264.233 27.592C268.073 25.672 271.657 25.064 274.985 25.768C276.329 26.024 277.257 26.568 277.769 27.4C278.345 28.232 278.345 29.096 277.769 29.992C277.257 30.888 277.065 31.752 277.193 32.584C277.385 33.352 277.545 34.28 277.673 35.368C277.865 38.312 277.353 40.936 276.137 43.24C274.921 45.48 273.673 48.296 272.393 51.688C271.113 55.016 269.801 58.568 268.457 62.344C267.177 66.12 265.865 69.96 264.521 73.864C263.177 77.768 261.865 81.32 260.585 84.52C257.769 91.88 255.465 95.944 253.673 96.712C251.241 98.184 249.449 99.048 248.297 99.304C246.825 99.56 244.745 99.56 242.057 99.304C240.393 99.176 238.953 97.032 237.737 92.872C237.033 90.632 236.393 87.528 235.817 83.56C234.793 76.648 234.089 72.84 233.705 72.136C231.145 80.456 229.321 85.704 228.233 87.88C227.209 90.056 226.409 91.496 225.833 92.2C225.321 92.904 224.681 93.832 223.913 94.984C223.081 97.288 221.097 98.984 217.961 100.072C215.273 101.096 212.841 101.256 210.665 100.552C208.297 99.784 207.593 98.312 208.553 96.136C209.257 88.456 212.009 76.328 216.809 59.752ZM277.278 59.752C278.558 55.464 279.582 52.168 280.35 49.864C281.182 47.496 281.982 45.384 282.75 43.528C283.518 41.672 284.382 39.88 285.342 38.152C286.366 36.424 287.454 34.856 288.606 33.448C289.822 31.976 291.102 30.824 292.446 29.992C293.79 29.16 295.198 28.744 296.67 28.744C298.142 28.744 299.678 29.32 301.278 30.472C303.838 36.872 305.406 41.16 305.982 43.336C306.75 46.536 307.454 51.048 308.094 56.872C308.67 55.4 309.31 53.864 310.014 52.264C310.782 50.6 311.518 48.936 312.222 47.272C314.206 43.048 315.454 39.848 315.966 37.672C317.374 33.192 320.286 29.832 324.702 27.592C328.542 25.672 332.126 25.064 335.454 25.768C336.798 26.024 337.726 26.568 338.238 27.4C338.814 28.232 338.814 29.096 338.238 29.992C337.726 30.888 337.534 31.752 337.662 32.584C337.854 33.352 338.014 34.28 338.142 35.368C338.334 38.312 337.822 40.936 336.606 43.24C335.39 45.48 334.142 48.296 332.862 51.688C331.582 55.016 330.27 58.568 328.926 62.344C327.646 66.12 326.334 69.96 324.99 73.864C323.646 77.768 322.334 81.32 321.054 84.52C318.238 91.88 315.934 95.944 314.142 96.712C311.71 98.184 309.918 99.048 308.766 99.304C307.294 99.56 305.214 99.56 302.526 99.304C300.862 99.176 299.422 97.032 298.206 92.872C297.502 90.632 296.862 87.528 296.286 83.56C295.262 76.648 294.558 72.84 294.174 72.136C291.614 80.456 289.79 85.704 288.702 87.88C287.678 90.056 286.878 91.496 286.302 92.2C285.79 92.904 285.15 93.832 284.382 94.984C283.55 97.288 281.566 98.984 278.43 100.072C275.742 101.096 273.31 101.256 271.134 100.552C268.766 99.784 268.062 98.312 269.022 96.136C269.726 88.456 272.478 76.328 277.278 59.752ZM384.307 31.912C386.483 33.064 387.859 34.76 388.435 37C387.155 44.168 386.003 51.304 384.979 58.408C383.955 65.448 382.963 71.368 382.003 76.168C381.043 80.904 380.371 84.456 379.987 86.824C379.667 89.192 379.283 91.56 378.835 93.928L378.259 95.944C378.131 96.648 378.003 97.288 377.875 97.864C377.747 98.504 377.619 99.176 377.491 99.88C375.699 101.928 373.267 102.952 370.195 102.952C366.931 102.952 364.339 102.12 362.419 100.456C361.267 99.56 361.075 97.672 361.843 94.792C362.163 93.64 362.355 92.168 362.419 90.376C362.547 88.52 362.675 86.984 362.803 85.768V85.576C360.883 86.28 359.155 87.208 357.619 88.36C356.083 89.448 355.123 90.152 354.739 90.472C354.355 90.728 353.843 90.952 353.203 91.144C352.563 91.272 351.987 91.368 351.475 91.432C350.259 91.496 349.427 91.688 348.979 92.008C345.267 98.664 341.939 102.376 338.995 103.144C337.139 103.72 335.283 103.848 333.427 103.528C331.571 103.272 330.099 102.184 329.011 100.264C326.963 98.344 327.475 93.096 330.547 84.52C332.211 79.976 334.579 74.536 337.651 68.2C340.787 61.8 343.795 56.232 346.675 51.496C352.883 41.32 359.699 32.744 367.123 25.768C368.339 25.256 369.651 24.68 371.059 24.04C372.467 23.336 373.843 22.952 375.187 22.888C376.595 22.824 378.035 22.984 379.507 23.368C380.979 23.752 382.227 24.328 383.251 25.096C385.619 26.888 385.971 29.16 384.307 31.912ZM363.763 57.16C362.419 61 361.075 64.552 359.731 67.816C358.387 71.016 357.235 73.832 356.275 76.264L363.859 75.976C364.371 71.88 364.947 67.816 365.587 63.784C366.227 59.752 366.835 55.72 367.411 51.688L363.763 57.16ZM361.171 76.36C362.067 76.36 362.963 76.296 363.859 76.168V76.072C363.027 76.136 362.259 76.2 361.555 76.264C360.851 76.328 360.723 76.36 361.171 76.36Z" fill="white"/>
<path d="M130.773 119H129.364C129.28 118.595 129.134 118.239 128.926 117.932C128.722 117.625 128.472 117.367 128.176 117.159C127.884 116.947 127.561 116.788 127.205 116.682C126.848 116.576 126.477 116.523 126.091 116.523C125.386 116.523 124.748 116.701 124.176 117.057C123.608 117.413 123.155 117.938 122.818 118.631C122.485 119.324 122.318 120.174 122.318 121.182C122.318 122.189 122.485 123.04 122.818 123.733C123.155 124.426 123.608 124.951 124.176 125.307C124.748 125.663 125.386 125.841 126.091 125.841C126.477 125.841 126.848 125.788 127.205 125.682C127.561 125.576 127.884 125.419 128.176 125.21C128.472 124.998 128.722 124.739 128.926 124.432C129.134 124.121 129.28 123.765 129.364 123.364H130.773C130.667 123.958 130.473 124.491 130.193 124.96C129.913 125.43 129.564 125.83 129.148 126.159C128.731 126.485 128.263 126.733 127.744 126.903C127.229 127.074 126.678 127.159 126.091 127.159C125.098 127.159 124.216 126.917 123.443 126.432C122.67 125.947 122.063 125.258 121.619 124.364C121.176 123.47 120.955 122.409 120.955 121.182C120.955 119.955 121.176 118.894 121.619 118C122.063 117.106 122.67 116.417 123.443 115.932C124.216 115.447 125.098 115.205 126.091 115.205C126.678 115.205 127.229 115.29 127.744 115.46C128.263 115.631 128.731 115.881 129.148 116.21C129.564 116.536 129.913 116.934 130.193 117.403C130.473 117.869 130.667 118.402 130.773 119ZM146.708 121.182C146.708 122.409 146.486 123.47 146.043 124.364C145.6 125.258 144.992 125.947 144.219 126.432C143.447 126.917 142.564 127.159 141.572 127.159C140.579 127.159 139.697 126.917 138.924 126.432C138.151 125.947 137.543 125.258 137.1 124.364C136.657 123.47 136.435 122.409 136.435 121.182C136.435 119.955 136.657 118.894 137.1 118C137.543 117.106 138.151 116.417 138.924 115.932C139.697 115.447 140.579 115.205 141.572 115.205C142.564 115.205 143.447 115.447 144.219 115.932C144.992 116.417 145.6 117.106 146.043 118C146.486 118.894 146.708 119.955 146.708 121.182ZM145.344 121.182C145.344 120.174 145.176 119.324 144.839 118.631C144.505 117.938 144.053 117.413 143.481 117.057C142.912 116.701 142.276 116.523 141.572 116.523C140.867 116.523 140.229 116.701 139.657 117.057C139.089 117.413 138.636 117.938 138.299 118.631C137.965 119.324 137.799 120.174 137.799 121.182C137.799 122.189 137.965 123.04 138.299 123.733C138.636 124.426 139.089 124.951 139.657 125.307C140.229 125.663 140.867 125.841 141.572 125.841C142.276 125.841 142.912 125.663 143.481 125.307C144.053 124.951 144.505 124.426 144.839 123.733C145.176 123.04 145.344 122.189 145.344 121.182ZM152.917 127V115.364H159.894V116.614H154.326V120.545H159.372V121.795H154.326V127H152.917ZM166.148 127V115.364H173.125V116.614H167.557V120.545H172.602V121.795H167.557V127H166.148ZM179.378 127V115.364H186.401V116.614H180.788V120.545H186.038V121.795H180.788V125.75H186.492V127H179.378ZM192.781 127V115.364H199.804V116.614H194.19V120.545H199.44V121.795H194.19V125.75H199.895V127H192.781ZM217.637 127.159C216.872 127.159 216.213 127.019 215.66 126.739C215.107 126.458 214.681 126.074 214.381 125.585C214.082 125.097 213.933 124.538 213.933 123.909C213.933 123.424 214.035 122.994 214.239 122.619C214.448 122.241 214.734 121.89 215.097 121.568C215.465 121.242 215.887 120.917 216.364 120.591L218.046 119.341C218.376 119.125 218.639 118.894 218.836 118.648C219.037 118.402 219.137 118.08 219.137 117.682C219.137 117.386 219.006 117.1 218.745 116.824C218.487 116.547 218.148 116.409 217.728 116.409C217.433 116.409 217.171 116.485 216.944 116.636C216.72 116.784 216.544 116.973 216.416 117.205C216.291 117.432 216.228 117.667 216.228 117.909C216.228 118.182 216.302 118.458 216.45 118.739C216.601 119.015 216.792 119.299 217.023 119.591C217.258 119.879 217.501 120.174 217.751 120.477L223.092 127H221.478L217.069 121.682C216.66 121.189 216.289 120.742 215.955 120.341C215.622 119.939 215.357 119.544 215.16 119.153C214.963 118.763 214.864 118.341 214.864 117.886C214.864 117.364 214.98 116.905 215.211 116.511C215.446 116.114 215.773 115.805 216.194 115.585C216.618 115.362 217.114 115.25 217.683 115.25C218.266 115.25 218.768 115.364 219.188 115.591C219.609 115.814 219.933 116.112 220.16 116.483C220.387 116.85 220.501 117.25 220.501 117.682C220.501 118.239 220.362 118.722 220.086 119.131C219.809 119.54 219.433 119.92 218.955 120.273L216.637 122C216.114 122.386 215.76 122.761 215.575 123.125C215.389 123.489 215.296 123.75 215.296 123.909C215.296 124.273 215.391 124.612 215.58 124.926C215.77 125.241 216.037 125.494 216.381 125.688C216.726 125.881 217.13 125.977 217.592 125.977C218.031 125.977 218.459 125.884 218.876 125.699C219.292 125.509 219.669 125.237 220.006 124.881C220.347 124.525 220.616 124.097 220.813 123.597C221.014 123.097 221.114 122.534 221.114 121.909H222.41C222.41 122.682 222.321 123.312 222.143 123.801C221.965 124.29 221.764 124.672 221.541 124.949C221.317 125.225 221.137 125.432 221.001 125.568C220.955 125.625 220.914 125.682 220.876 125.739C220.838 125.795 220.796 125.852 220.751 125.909C220.376 126.33 219.902 126.644 219.33 126.852C218.758 127.057 218.194 127.159 217.637 127.159ZM246.301 119H244.892C244.809 118.595 244.663 118.239 244.455 117.932C244.25 117.625 244 117.367 243.705 117.159C243.413 116.947 243.089 116.788 242.733 116.682C242.377 116.576 242.006 116.523 241.62 116.523C240.915 116.523 240.277 116.701 239.705 117.057C239.137 117.413 238.684 117.938 238.347 118.631C238.014 119.324 237.847 120.174 237.847 121.182C237.847 122.189 238.014 123.04 238.347 123.733C238.684 124.426 239.137 124.951 239.705 125.307C240.277 125.663 240.915 125.841 241.62 125.841C242.006 125.841 242.377 125.788 242.733 125.682C243.089 125.576 243.413 125.419 243.705 125.21C244 124.998 244.25 124.739 244.455 124.432C244.663 124.121 244.809 123.765 244.892 123.364H246.301C246.195 123.958 246.002 124.491 245.722 124.96C245.442 125.43 245.093 125.83 244.676 126.159C244.26 126.485 243.792 126.733 243.273 126.903C242.758 127.074 242.207 127.159 241.62 127.159C240.627 127.159 239.745 126.917 238.972 126.432C238.199 125.947 237.591 125.258 237.148 124.364C236.705 123.47 236.483 122.409 236.483 121.182C236.483 119.955 236.705 118.894 237.148 118C237.591 117.106 238.199 116.417 238.972 115.932C239.745 115.447 240.627 115.205 241.62 115.205C242.207 115.205 242.758 115.29 243.273 115.46C243.792 115.631 244.26 115.881 244.676 116.21C245.093 116.536 245.442 116.934 245.722 117.403C246.002 117.869 246.195 118.402 246.301 119ZM262.237 121.182C262.237 122.409 262.015 123.47 261.572 124.364C261.129 125.258 260.521 125.947 259.748 126.432C258.975 126.917 258.093 127.159 257.1 127.159C256.108 127.159 255.225 126.917 254.453 126.432C253.68 125.947 253.072 125.258 252.629 124.364C252.186 123.47 251.964 122.409 251.964 121.182C251.964 119.955 252.186 118.894 252.629 118C253.072 117.106 253.68 116.417 254.453 115.932C255.225 115.447 256.108 115.205 257.1 115.205C258.093 115.205 258.975 115.447 259.748 115.932C260.521 116.417 261.129 117.106 261.572 118C262.015 118.894 262.237 119.955 262.237 121.182ZM260.873 121.182C260.873 120.174 260.704 119.324 260.367 118.631C260.034 117.938 259.581 117.413 259.009 117.057C258.441 116.701 257.805 116.523 257.1 116.523C256.396 116.523 255.757 116.701 255.186 117.057C254.617 117.413 254.165 117.938 253.828 118.631C253.494 119.324 253.328 120.174 253.328 121.182C253.328 122.189 253.494 123.04 253.828 123.733C254.165 124.426 254.617 124.951 255.186 125.307C255.757 125.663 256.396 125.841 257.1 125.841C257.805 125.841 258.441 125.663 259.009 125.307C259.581 124.951 260.034 124.426 260.367 123.733C260.704 123.04 260.873 122.189 260.873 121.182ZM277.81 119H276.401C276.317 118.595 276.171 118.239 275.963 117.932C275.758 117.625 275.508 117.367 275.213 117.159C274.921 116.947 274.597 116.788 274.241 116.682C273.885 116.576 273.514 116.523 273.128 116.523C272.423 116.523 271.785 116.701 271.213 117.057C270.645 117.413 270.192 117.938 269.855 118.631C269.522 119.324 269.355 120.174 269.355 121.182C269.355 122.189 269.522 123.04 269.855 123.733C270.192 124.426 270.645 124.951 271.213 125.307C271.785 125.663 272.423 125.841 273.128 125.841C273.514 125.841 273.885 125.788 274.241 125.682C274.597 125.576 274.921 125.419 275.213 125.21C275.508 124.998 275.758 124.739 275.963 124.432C276.171 124.121 276.317 123.765 276.401 123.364H277.81C277.704 123.958 277.51 124.491 277.23 124.96C276.95 125.43 276.601 125.83 276.185 126.159C275.768 126.485 275.3 126.733 274.781 126.903C274.266 127.074 273.715 127.159 273.128 127.159C272.135 127.159 271.253 126.917 270.48 126.432C269.707 125.947 269.099 125.258 268.656 124.364C268.213 123.47 267.991 122.409 267.991 121.182C267.991 119.955 268.213 118.894 268.656 118C269.099 117.106 269.707 116.417 270.48 115.932C271.253 115.447 272.135 115.205 273.128 115.205C273.715 115.205 274.266 115.29 274.781 115.46C275.3 115.631 275.768 115.881 276.185 116.21C276.601 116.536 276.95 116.934 277.23 117.403C277.51 117.869 277.704 118.402 277.81 119ZM283.927 127V115.364H285.336V121.136H285.472L290.699 115.364H292.54L287.654 120.614L292.54 127H290.836L286.79 121.591L285.336 123.227V127H283.927ZM297.568 116.614V115.364H306.295V116.614H302.636V127H301.227V116.614H297.568ZM311.428 127H309.95L314.223 115.364H315.678L319.95 127H318.473L314.996 117.205H314.905L311.428 127ZM311.973 122.455H317.928V123.705H311.973V122.455ZM327.012 115.364V127H325.603V115.364H327.012ZM333.677 127V115.364H335.086V125.75H340.495V127H333.677Z" fill="white"/>
<line x1="104.5" y1="0.000110765" x2="104.489" y2="153" stroke="white" stroke-width="3"/>
<path d="M83.5681 38.2737C86.2133 52.5242 88.0832 63.9821 87.3929 74.4035C86.7079 84.7434 83.4959 94.0989 75.8518 104.088C72.1445 108.933 68.5479 110.581 64.9016 110.438C61.0989 110.29 56.8892 108.194 52.0314 104.699C48.1388 101.898 44.0013 98.3302 39.4805 94.4322C38.3853 93.488 37.2677 92.5243 36.1256 91.5474C30.3026 86.5669 23.9012 81.2962 16.8111 76.7382C3.38757 68.1087 -0.142761 53.8864 2.35479 43.5146C3.60669 38.3157 6.32823 34.2479 9.88328 32.2399C13.3567 30.278 17.9077 30.1232 23.2809 33.292C29.4456 36.9276 36.2007 37.1945 42.7723 36.14C48.1504 35.2771 53.5561 33.4986 58.5203 31.8653C59.5837 31.5155 60.6268 31.1723 61.645 30.8462C64.5639 29.9114 67.2797 29.1142 69.7617 28.6498C72.25 28.1843 74.4044 28.0733 76.2231 28.4382C77.9999 28.7946 79.483 29.6085 80.6884 31.0805C81.9198 32.5842 82.9357 34.8669 83.5681 38.2737Z" stroke="white" stroke-width="3"/>
</svg>
